<?xml version="1.0" encoding="UTF-8" standalone="no"?>
<svg width="158.8px" height="64.2px" version="1.1" xmlns="http://www.w3.org/2000/svg" xmlns:xlink="http://www.w3.org/1999/xlink" xmlns:sketch="http://www.bohemiancoding.com/sketch/ns">
    <!-- Generator: Sketch 3.4.2 (15855) - http://www.bohemiancoding.com/sketch -->
    <title>Nebland OADR Services Logo</title>
    <desc>Created with Sketch.</desc>
    <defs></defs>

    <g transform="scale(0.20)">

    <g id="Page-1" stroke="none" stroke-width="1" fill="none" fill-rule="evenodd" sketch:type="MSPage">
        <path d="M258.03301,0.556666667 L793.054369,0.556666667 L793.054369,231.113333 L258.03301,231.113333 L258.03301,0.556666667 Z" id="Fill-1" fill="#615959" sketch:type="MSShapeGroup"></path>
        <path d="M405.287379,62.8955556 L418.118447,62.8955556 L418.118447,169.264444 L405.287379,169.264444 L405.287379,62.8955556 Z" id="Fill-10" fill="#A9B72C" sketch:type="MSShapeGroup"></path>
        <path d="M513.434951,150.457778 L513.434951,129.271111 C510.390291,129.543333 506.52233,129.932222 501.831068,130.43 C497.194175,130.888889 493.434951,131.55 490.568932,132.413333 C487.159223,133.463333 484.332039,135.081111 482.102913,137.266667 C479.873786,139.413333 478.763107,142.415556 478.763107,146.288889 C478.763107,150.667778 479.990291,153.973333 482.44466,156.205556 C484.906796,158.437778 488.495146,159.55 493.23301,159.55 C497.279612,159.55 500.945631,158.686667 504.223301,156.952222 C507.500971,155.178889 510.568932,153.016667 513.434951,150.457778 L513.434951,150.457778 Z M513.434951,161.121111 C512.386408,161.898889 510.980583,162.995556 509.201942,164.403333 C507.47767,165.772222 505.792233,166.868889 504.153398,167.685556 C501.87767,168.875556 499.671845,169.785556 497.535922,170.423333 C495.438835,171.061111 492.479612,171.38 488.658252,171.38 C485.520388,171.38 482.537864,170.781111 479.718447,169.598889 C476.891262,168.416667 474.413592,166.752222 472.27767,164.613333 C470.227184,162.513333 468.58835,159.938889 467.361165,156.89 C466.133981,153.786667 465.512621,150.527778 465.512621,147.113333 C465.512621,141.824444 466.631068,137.336667 468.860194,133.642222 C471.08932,129.908889 474.615534,126.945556 479.438835,124.76 C483.718447,122.8 488.774757,121.454444 494.6,120.723333 C500.417476,119.953333 506.700971,119.385556 513.434951,119.012222 L513.434951,116.554444 C513.434951,113.552222 512.984466,111.133333 512.075728,109.305556 C511.159223,107.438889 509.885437,106.007778 508.246602,105.004444 C506.615534,103.954444 504.61165,103.27 502.242718,102.951111 C499.873786,102.585556 497.442718,102.406667 494.941748,102.406667 C491.982524,102.406667 488.495146,102.857778 484.495146,103.767778 C480.487379,104.638889 476.487379,105.914444 472.479612,107.602222 L471.726214,107.602222 L471.726214,94.5433333 C474.095146,93.8588889 477.481553,93.1044444 481.900971,92.2877778 C486.312621,91.4633333 490.685437,91.0588889 495.003883,91.0588889 C500.238835,91.0588889 504.650485,91.4633333 508.246602,92.2877778 C511.842718,93.1044444 515.073786,94.59 517.939806,96.7288889 C520.720388,98.8288889 522.786408,101.535556 524.153398,104.864444 C525.520388,108.193333 526.203883,112.245556 526.203883,117.028889 L526.203883,169.256667 L513.434951,169.256667 L513.434951,161.121111 L513.434951,161.121111 Z" id="Fill-11" fill="#A9B72C" sketch:type="MSShapeGroup"></path>
        <path d="M638.040777,169.256667 L625.209709,169.256667 L625.209709,125.778889 C625.209709,122.271111 625.023301,119.02 624.658252,116.01 C624.339806,112.953333 623.702913,110.518889 622.747573,108.691111 C621.699029,106.777778 620.246602,105.37 618.382524,104.452222 C616.51068,103.495556 613.963107,103.021111 610.732039,103.021111 C607.547573,103.021111 604.246602,103.884444 600.836893,105.618889 C597.466019,107.306667 594.165049,109.515556 590.933981,112.245556 L590.933981,169.256667 L578.102913,169.256667 L578.102913,92.9022222 L590.933981,92.9022222 L590.933981,101.38 C594.763107,97.9577778 598.537864,95.3444444 602.266019,93.5166667 C606.001942,91.6966667 609.939806,90.7866667 614.079612,90.7788889 C621.590291,90.7788889 627.462136,93.2677778 631.695146,98.2377778 C635.920388,103.153333 638.040777,110.316667 638.040777,119.704444 L638.040777,169.256667" id="Fill-12" fill="#A9B72C" sketch:type="MSShapeGroup"></path>
        <path d="M748.650485,169.256667 L735.81165,169.256667 L735.81165,161.463333 C733.807767,163.151111 732.083495,164.543333 730.623301,165.64 C729.170874,166.728889 727.462136,167.732222 725.504854,168.642222 C723.687379,169.513333 721.792233,170.166667 719.842718,170.625556 C717.87767,171.131111 715.609709,171.38 713.015534,171.38 C708.867961,171.38 705.031068,170.516667 701.473786,168.782222 C697.970874,167.047778 694.996117,164.52 692.533981,161.191111 C690.03301,157.823333 688.099029,153.677778 686.732039,148.754444 C685.365049,143.784444 684.681553,138.091111 684.681553,131.666667 C684.681553,124.962222 685.543689,119.175556 687.275728,114.298889 C689.007767,109.375556 691.392233,105.097778 694.44466,101.45 C697.217476,98.1211111 700.565049,95.5233333 704.479612,93.6566667 C708.440777,91.7355556 712.580583,90.7788889 716.906796,90.7788889 C720.728155,90.7788889 724.052427,91.2144444 726.871845,92.0855556 C729.691262,92.9022222 732.673786,94.2011111 735.81165,95.9822222 L735.81165,62.8955556 L748.650485,62.8955556 L748.650485,169.256667 L748.650485,169.256667 Z M735.81165,150.667778 L735.81165,106.645556 C732.627184,105.097778 729.761165,104.024444 727.213592,103.433333 C724.704854,102.842222 721.978641,102.546667 719.019417,102.538889 C712.417476,102.538889 707.252427,105.027778 703.524272,109.99 C699.78835,114.913333 697.924272,122.045556 697.924272,131.386667 C697.924272,140.37 699.361165,147.245556 702.227184,152.028889 C705.093204,156.773333 709.691262,159.145556 716.013592,159.145556 C719.384466,159.145556 722.770874,158.391111 726.18835,156.89 C729.598058,155.342222 732.813592,153.265556 735.81165,150.667778 L735.81165,150.667778 Z" id="Fill-13" fill="#A9B72C" sketch:type="MSShapeGroup"></path>
        <path d="M0.47961165,36.2255556 L369.217476,36.2255556 L369.217476,197.404444 L0.47961165,197.404444 L0.47961165,36.2255556 Z" id="Fill-14" fill="#A9B72C" sketch:type="MSShapeGroup"></path>
        <path d="M108.930097,169.256667 L84.9067961,169.256667 L84.9067961,131.184444 C84.9067961,128.088889 84.7669903,125.008889 84.4951456,121.952222 C84.2621359,118.856667 83.8116505,116.577778 83.1281553,115.115556 C82.3126214,113.388889 81.1242718,112.16 79.5786408,111.428889 C78.0330097,110.651111 75.9592233,110.27 73.3650485,110.262222 C71.407767,110.262222 69.4271845,110.635556 67.431068,111.358889 C65.4271845,112.09 63.2834951,113.248889 61.007767,114.843333 L61.007767,169.256667 L37.1165049,169.256667 L37.1165049,92.49 L61.007767,92.49 L61.007767,100.967778 C64.9223301,97.6466667 68.7203883,95.0488889 72.4097087,93.1744444 C76.1456311,91.3077778 80.2621359,90.3744444 84.7669903,90.3744444 C92.5961165,90.3744444 98.576699,92.8555556 102.716505,97.8255556 C106.864078,102.748889 108.930097,109.904444 108.930097,119.292222 L108.930097,169.256667" id="Fill-15" fill="#FFFFFF" sketch:type="MSShapeGroup"></path>
        <path d="M190.747573,171.31 C176.27767,171.31 165.170874,167.848889 157.434951,160.918889 C149.737864,153.996667 145.893204,144.126667 145.893204,131.316667 C145.893204,118.786667 149.48932,108.784444 156.681553,101.31 C163.873786,93.8355556 173.932039,90.1022222 186.856311,90.1022222 C198.6,90.1022222 207.423301,93.2677778 213.341748,99.5988889 C219.260194,105.937778 222.21165,115.006667 222.219417,126.805556 L222.219417,135.423333 L169.854369,135.423333 C170.079612,138.977778 170.83301,141.964444 172.106796,144.375556 C173.380583,146.747778 175.066019,148.637778 177.163107,150.053333 C179.205825,151.468889 181.598058,152.487778 184.332039,153.125556 C187.058252,153.716667 190.040777,154.012222 193.271845,154.012222 C196.04466,154.012222 198.778641,153.716667 201.466019,153.125556 C204.145631,152.487778 206.607767,151.671111 208.836893,150.667778 C210.794175,149.804444 212.58835,148.871111 214.227184,147.867778 C215.912621,146.864444 217.279612,145.97 218.328155,145.2 L220.852427,145.2 L220.852427,164.955556 C218.895146,165.733333 217.093204,166.456667 215.454369,167.141111 C213.862136,167.778889 211.656311,168.44 208.836893,169.124444 C206.242718,169.808889 203.55534,170.33 200.782524,170.695556 C198.048544,171.107778 194.708738,171.31 190.747573,171.31 L190.747573,171.31 Z M198.662136,120.995556 C198.530097,115.94 197.341748,112.09 195.112621,109.445556 C192.930097,106.801111 189.559223,105.478889 185.015534,105.478889 C180.370874,105.478889 176.728155,106.871111 174.087379,109.647778 C171.493204,112.432222 170.064078,116.212222 169.792233,120.995556 L198.662136,120.995556 L198.662136,120.995556 Z" id="Fill-16" fill="#FFFFFF" sketch:type="MSShapeGroup"></path>
        <path d="M310.102913,130.297778 C310.102913,122.636667 308.945631,117.168889 306.623301,113.886667 C304.300971,110.604444 300.728155,108.963333 295.904854,108.963333 C293.768932,108.963333 291.625243,109.305556 289.48932,109.99 C287.392233,110.674444 285.326214,111.701111 283.275728,113.07 L283.275728,151.624444 C284.867961,152.262222 286.460194,152.697778 288.052427,152.923333 C289.691262,153.148889 291.306796,153.265556 292.899029,153.265556 C298.67767,153.265556 302.980583,151.352222 305.807767,147.517778 C308.673786,143.691111 310.102913,137.951111 310.102913,130.297778 L310.102913,130.297778 Z M334.545631,129.815556 C334.545631,142.034444 331.446602,151.92 325.256311,159.487778 C319.066019,167.001111 311.4,170.765556 302.250485,170.765556 C298.429126,170.765556 295.104854,170.33 292.285437,169.466667 C289.466019,168.603333 286.460194,167.257778 283.275728,165.43 L282.250485,169.256667 L259.384466,169.256667 L259.384466,62.8955556 L283.275728,62.8955556 L283.275728,100.485556 C286.778641,97.4833333 290.351456,95.0488889 293.994175,93.1744444 C297.636893,91.3077778 301.838835,90.3744444 306.623301,90.3744444 C315.539806,90.3744444 322.413592,93.8588889 327.236893,100.835556 C332.106796,107.804444 334.537864,117.464444 334.545631,129.815556 L334.545631,129.815556 Z" id="Fill-17" fill="#FFFFFF" sketch:type="MSShapeGroup"></path>
        <path d="M134.541992,305.35498 C126.314412,305.35498 119.734888,302.767116 114.803223,297.591309 C109.871557,292.415501 107.405762,285.518598 107.405762,276.900391 C107.405762,268.184527 109.883764,261.263209 114.839844,256.13623 C119.795923,251.009252 126.485309,248.445801 134.908203,248.445801 C143.282268,248.445801 149.953344,251.009252 154.921631,256.13623 C159.889917,261.263209 162.374023,268.147906 162.374023,276.790527 C162.374023,285.628462 159.889917,292.598607 154.921631,297.701172 C149.953344,302.803736 143.160199,305.35498 134.541992,305.35498 L134.541992,305.35498 Z M134.688477,297.884277 C139.522485,297.884277 143.349351,295.986103 146.169189,292.189697 C148.989028,288.393292 150.398926,283.248079 150.398926,276.753906 C150.398926,270.455047 148.982924,265.401386 146.150879,261.592773 C143.318833,257.784161 139.571312,255.879883 134.908203,255.879883 C130.196266,255.879883 126.430434,257.784161 123.610596,261.592773 C120.790757,265.401386 119.380859,270.491667 119.380859,276.86377 C119.380859,283.187043 120.784654,288.271221 123.592285,292.116455 C126.399916,295.961689 130.09861,297.884277 134.688477,297.884277 L134.688477,297.884277 Z M176.585449,304 L197.679199,249.800781 L208.958496,249.800781 L230.052246,304 L218.47998,304 L212.840332,289.534668 L190.428223,289.534668 L184.788574,304 L176.585449,304 Z M193.211426,282.320312 L210.057129,282.320312 L201.634277,260.713867 L193.211426,282.320312 Z M247.742676,304 L247.742676,249.800781 L271.070312,249.800781 C279.468792,249.800781 285.901833,252.028542 290.369629,256.484131 C294.837425,260.93972 297.071289,267.366657 297.071289,275.765137 C297.071289,284.700728 294.703149,291.640356 289.966797,296.584229 C285.230445,301.528101 278.602093,304 270.081543,304 L247.742676,304 Z M259.021973,296.30957 L267.444824,296.30957 C273.377471,296.30957 277.802476,294.667741 280.719971,291.384033 C283.637466,288.100325 285.096191,283.113803 285.096191,276.424316 C285.096191,271.248509 283.924328,266.93947 281.580566,263.49707 C279.96923,261.128894 278.028332,259.493169 275.757812,258.589844 C273.487293,257.686519 270.179221,257.234863 265.833496,257.234863 L259.021973,257.234863 L259.021973,296.30957 Z M317.215332,304 L317.215332,249.800781 L337.503418,249.800781 C348.514215,249.800781 354.019531,254.280717 354.019531,263.240723 C354.019531,266.585466 353.085703,269.63109 351.218018,272.377686 C349.350332,275.124281 346.780778,277.229973 343.509277,278.694824 L361.233887,304 L347.500977,304 L334.061035,281.844238 L327.835449,281.844238 L327.835449,304 L317.215332,304 Z M327.835449,274.410156 L330.435547,274.410156 C338.614299,274.410156 342.703613,271.102084 342.703613,264.48584 C342.703613,259.651831 339.053747,257.234863 331.753906,257.234863 L327.835449,257.234863 L327.835449,274.410156 Z M410.640625,303.523926 L410.640625,294.222168 C416.475615,296.663586 421.468241,297.884277 425.618652,297.884277 C428.52394,297.884277 430.812736,297.237311 432.485107,295.943359 C434.157479,294.649408 434.993652,292.891613 434.993652,290.669922 C434.993652,288.912101 434.468755,287.428961 433.418945,286.220459 C432.369135,285.011957 430.379409,283.577645 427.449707,281.91748 L423.824219,279.90332 C418.965796,277.168932 415.535655,274.55055 413.533691,272.048096 C411.531728,269.545642 410.530762,266.622087 410.530762,263.277344 C410.530762,258.809548 412.172591,255.220717 415.456299,252.510742 C418.740007,249.800768 423.079563,248.445801 428.475098,248.445801 C432.796408,248.445801 437.666965,249.068353 443.086914,250.313477 L443.086914,258.992676 C437.544894,256.91747 433.162614,255.879883 429.939941,255.879883 C427.449695,255.879883 425.453865,256.435297 423.952393,257.546143 C422.45092,258.656988 421.700195,260.115714 421.700195,261.922363 C421.700195,263.411629 422.225092,264.717768 423.274902,265.84082 C424.324712,266.963873 426.302232,268.343254 429.20752,269.979004 L433.089355,272.139648 C438.313991,275.069351 441.915029,277.767078 443.892578,280.23291 C445.870127,282.698743 446.858887,285.701642 446.858887,289.241699 C446.858887,294.271021 444.99123,298.213853 441.255859,301.070312 C437.520489,303.926772 432.369173,305.35498 425.801758,305.35498 C421.456033,305.35498 416.402373,304.744635 410.640625,303.523926 L410.640625,303.523926 Z M499.266113,302.64502 C494.11472,304.158699 489.231957,304.915527 484.617676,304.915527 C477.903775,304.915527 472.605976,303.01125 468.724121,299.202637 C464.842266,295.394024 462.901367,290.193881 462.901367,283.602051 C462.901367,277.376434 464.677472,272.365497 468.229736,268.569092 C471.782,264.772686 476.475557,262.874512 482.310547,262.874512 C488.194365,262.874512 492.491197,264.729962 495.201172,268.440918 C497.911146,272.151874 499.266113,278.023397 499.266113,286.055664 L474.327148,286.055664 C475.059574,293.721718 479.270958,297.554688 486.961426,297.554688 C490.599139,297.554688 494.700661,296.712411 499.266113,295.027832 L499.266113,302.64502 Z M474.180664,279.939941 L488.609375,279.939941 C488.609375,273.079556 486.399924,269.649414 481.980957,269.649414 C477.488747,269.649414 474.888675,273.079556 474.180664,279.939941 L474.180664,279.939941 Z M520.472168,304 L520.472168,263.790039 L531.312012,263.790039 L531.312012,271.370605 C534.119643,265.706515 538.392061,262.874512 544.129395,262.874512 C544.812992,262.874512 545.484372,262.947753 546.143555,263.094238 L546.143555,272.762207 C544.605461,272.200681 543.177253,271.919922 541.858887,271.919922 C537.537576,271.919922 534.021986,274.104959 531.312012,278.475098 L531.312012,304 L520.472168,304 Z M574.490723,304 L559.146484,263.790039 L570.572266,263.790039 L581.814941,292.793945 L592.984375,263.790039 L600.821289,263.790039 L585.330566,304 L574.490723,304 Z M619.061035,304 L619.061035,263.790039 L629.900879,263.790039 L629.900879,304 L619.061035,304 Z M619.061035,257.015137 L619.061035,247.969727 L629.900879,247.969727 L629.900879,257.015137 L619.061035,257.015137 Z M683.11377,303.121094 C678.62156,304.317389 674.459004,304.915527 670.625977,304.915527 C664.205046,304.915527 659.133075,303.02956 655.409912,299.257568 C651.686749,295.485577 649.825195,290.352572 649.825195,283.858398 C649.825195,277.290983 651.74168,272.151874 655.574707,268.440918 C659.407734,264.729962 664.705533,262.874512 671.468262,262.874512 C674.739762,262.874512 678.511697,263.399409 682.78418,264.449219 L682.78418,272.286133 C678.340798,270.845696 674.788588,270.125488 672.127441,270.125488 C668.880355,270.125488 666.268076,271.370593 664.290527,273.86084 C662.312978,276.351087 661.324219,279.659159 661.324219,283.785156 C661.324219,288.00881 662.392323,291.390124 664.528564,293.929199 C666.664806,296.468274 669.515119,297.737793 673.07959,297.737793 C676.326676,297.737793 679.67137,297.029792 683.11377,295.61377 L683.11377,303.121094 Z M736.106934,302.64502 C730.955541,304.158699 726.072777,304.915527 721.458496,304.915527 C714.744595,304.915527 709.446797,303.01125 705.564941,299.202637 C701.683086,295.394024 699.742188,290.193881 699.742188,283.602051 C699.742188,277.376434 701.518293,272.365497 705.070557,268.569092 C708.62282,264.772686 713.316377,262.874512 719.151367,262.874512 C725.035186,262.874512 729.332018,264.729962 732.041992,268.440918 C734.751967,272.151874 736.106934,278.023397 736.106934,286.055664 L711.167969,286.055664 C711.900394,293.721718 716.111778,297.554688 723.802246,297.554688 C727.43996,297.554688 731.541481,296.712411 736.106934,295.027832 L736.106934,302.64502 Z M711.021484,279.939941 L725.450195,279.939941 C725.450195,273.079556 723.240745,269.649414 718.821777,269.649414 C714.329567,269.649414 711.729496,273.079556 711.021484,279.939941 L711.021484,279.939941 Z M756.250977,302.718262 L756.250977,294.771484 C761.622097,297.017589 766.211895,298.140625 770.020508,298.140625 C774.463889,298.140625 776.685547,296.626968 776.685547,293.599609 C776.685547,291.646475 774.85451,289.937507 771.192383,288.472656 L767.530273,287.007812 C763.550761,285.396476 760.706552,283.663095 758.997559,281.807617 C757.288566,279.952139 756.434082,277.65724 756.434082,274.922852 C756.434082,271.114239 757.886704,268.154063 760.791992,266.042236 C763.69728,263.930409 767.762181,262.874512 772.986816,262.874512 C776.258317,262.874512 780.152321,263.350581 784.668945,264.302734 L784.668945,271.919922 C780.32322,270.406242 776.722182,269.649414 773.865723,269.649414 C769.373513,269.649414 767.127441,271.041002 767.127441,273.824219 C767.127441,275.655283 768.787581,277.20556 772.10791,278.475098 L775.257324,279.683594 C779.969262,281.465829 783.246817,283.272452 785.090088,285.103516 C786.933359,286.934579 787.85498,289.290513 787.85498,292.171387 C787.85498,295.955585 786.286393,299.025623 783.14917,301.381592 C780.011947,303.737561 775.928736,304.915527 770.899414,304.915527 C766.065406,304.915527 761.182642,304.183113 756.250977,302.718262 L756.250977,302.718262 Z" id="OADR-Services" fill="#B3B3B3" sketch:type="MSShapeGroup"></path>
    </g>
</g>
</svg>
